<svg width="117" height="117" viewBox="0 0 117 117" fill="none" xmlns="http://www.w3.org/2000/svg">
<circle cx="58.5" cy="58.5" r="58.5" fill="#DA281B"/>
<circle cx="58.5" cy="58.5" r="58.5" fill="#DA281B"/>
<rect width="13.3977" height="27.8756" transform="matrix(0.709193 0.705014 -0.646039 0.763304 45.5978 32.4473)" fill="white"/>
<path d="M48.0713 29.7364L44.9253 33.164L54.0231 43.2844L57.2109 40.4904L56.9183 36.0556L57.7023 30.9006L52.2779 33.868L48.2803 32.9041L48.0713 29.7364Z" fill="white"/>
<path d="M20.1226 62.6902L29.6241 72.1358L24.5016 78.1882L15 68.7426L20.1226 62.6902Z" fill="white"/>
<path d="M26.7725 55.0984L36.2741 64.544L34.2466 66.9395L24.745 57.4939L26.7725 55.0984Z" fill="white"/>
<path d="M70.778 32.9739L61.2764 42.4195L89.4984 75.7642L99 66.3186L70.778 32.9739Z" fill="white"/>
<path d="M60 39.5263L61.0909 42.4211L63.8182 43L72 34.8947L70.9091 33.1579L67.6364 32H64.9091L64.3636 34.8947V38.9474L62.1818 38.3684L60 39.5263Z" fill="white"/>
<rect width="13.3977" height="27.8756" transform="matrix(0.709193 0.705014 -0.646039 0.763304 45.5978 32.4473)" fill="white"/>
<path d="M48.0713 29.7364L44.9253 33.164L54.0231 43.2844L57.2109 40.4904L56.9183 36.0556L57.7023 30.9006L52.2779 33.868L48.2803 32.9041L48.0713 29.7364Z" fill="white"/>
<path d="M20.1226 62.6902L29.6241 72.1358L24.5016 78.1882L15 68.7426L20.1226 62.6902Z" fill="white"/>
<path d="M23.5492 58.7554L33.0508 68.201L31.0233 70.5965L21.5217 61.1509L23.5492 58.7554Z" fill="white"/>
<path d="M26.7725 55.0984L36.2741 64.544L34.2466 66.9395L24.745 57.4939L26.7725 55.0984Z" fill="white"/>
<path d="M70.778 32.9739L61.2764 42.4195L89.4984 75.7642L99 66.3186L70.778 32.9739Z" fill="white"/>
<path d="M60 39.5263L61.0909 42.4211L63.8182 43L72 34.8947L70.9091 33.1579L67.6364 32H64.9091L64.3636 34.8947V38.9474L62.1818 38.3684L60 39.5263Z" fill="white"/>
</svg>
