<svg width="174" height="126" viewBox="0 0 174 126" fill="none" xmlns="http://www.w3.org/2000/svg">
<path d="M110.727 47.25H153.357L127.02 15.75H110.727V47.25ZM130.5 114.188C133.585 114.188 136.353 113.164 138.725 110.801C141.098 108.439 142.364 105.683 142.364 102.375C142.364 99.3037 141.098 96.5475 138.725 94.185C136.353 91.8225 133.585 90.5625 130.5 90.5625C127.178 90.5625 124.41 91.8225 122.037 94.185C119.665 96.5475 118.636 99.3037 118.636 102.375C118.636 105.683 119.665 108.439 122.037 110.801C124.41 113.164 127.178 114.188 130.5 114.188ZM39.5455 114.188C43.0255 114.188 45.8727 113.164 48.0873 110.801C50.3018 108.439 51.4091 105.683 51.4091 102.375C51.4091 99.3037 50.3018 96.5475 48.0873 94.185C45.8727 91.8225 43.0255 90.5625 39.5455 90.5625C36.0655 90.5625 33.2182 91.8225 31.0036 94.185C28.7891 96.5475 27.6818 99.3037 27.6818 102.375C27.6818 105.683 28.7891 108.439 31.0036 110.801C33.2182 113.164 36.0655 114.188 39.5455 114.188ZM134.455 0L174 47.25V102.375H154.227C154.227 108.911 151.775 114.424 147.03 119.149C142.364 123.795 136.827 126 130.5 126C123.935 126 118.399 123.795 113.733 119.149C108.987 114.424 106.773 108.911 106.773 102.375H63.2727C63.2727 108.911 60.9 114.424 56.2336 119.149C51.4091 123.795 45.9518 126 39.5455 126C33.1391 126 27.6818 123.795 22.8573 119.149C18.1909 114.424 15.8182 108.911 15.8182 102.375H0V70.875H64.7755L15.8182 32.3662V55.125H0V7.875H7.90909L94.9091 55.5975V0H134.455Z" fill="black"/>
</svg>
